<?xml version="1.0" encoding="UTF-8"?>
<svg id="Capa_1" data-name="Capa 1" xmlns="http://www.w3.org/2000/svg" viewBox="0 0 539.52 887.99">
  <defs>
    <style>
      .cls-1 {
        fill: #015249;
      }

      .cls-2 {
        fill: #5eb68e;
      }

      .cls-3 {
        fill: #7ac7d2;
      }
    </style>
  </defs>
  <g>
    <path class="cls-1" d="m537.09,278.7c2.04-1.23-.73-21.42-2.34-23.17l-8.23-13.81c-.28-2.03-.58-4.07-.91-6.09l8.9,3.23c1.83-1.52-3.92-21.07-5.77-22.56l-10.87-13.25c-.54-1.74-1.13-3.46-1.7-5.18l9.86,1.98c1.58-1.77-7.01-20.25-9.07-21.45l-14.07-12.7c-.61-1.23-1.2-2.47-1.83-3.69l10.77.53c1.3-1.99-9.95-18.98-12.16-19.86l-18.04-11.94c-.43-.59-.86-1.19-1.3-1.78l11.9-1.2c.99-2.16-12.67-17.29-14.99-17.83l-22.34-10.38,12.76-3.26c.66-2.28-15.11-15.2-17.48-15.39l-23.63-6.94,12.13-5.13c.31-2.36-17.2-12.78-19.57-12.62l-24.4-3.34,11.23-6.88c-.04-2.38-18.92-10.08-21.24-9.56l-24.7.34c-1.37.3-3.8,2.29-5.64,4.46-.86-.24-1.71-.52-2.57-.75-2.56-3.2-5.64-5.29-8.9-6.61l.07-.18c1.19-2.48,14.66,1.44,14.66,1.44-.87-10.91-19.25-19.32-19.25-19.32l-.16-.4c4.12-1.52,7.2-2,7.2-2-4.15-11.48-31.04-7.31-34.58-6.7.6-3.67.79-6.65.79-6.65-9.06-.92-26.58,7.17-28.73,8.19-.2-4.04-1.03-6.8-2.48-6.39-4.28,1.19-24.26,21.01-24.26,21.01l-.1.65c-10.15-1.64-24.55,2.92-22.41,11.68l.04.17c-12.15,2.78-18.47,5.09-21.71,6.65-3.23,1.55-6.75,2.42-10.32,2.71-4.93.39-10.87.81-12.24.67v.04c-.14-.07-.27-.11-.41-.14-28.53-9.14-38.59,28.97-14.44,31.09.2,0,.39.02.6.05.08-.01.16,0,.22.01,8.09.5,30.63,1.38,60.44-2.34l.09.06c-1.73,2.61-2.25,5.66-.67,8.69.03,0,.03.02.02.04-.72,1.06-88.2,23.26-66.86,30.91,0,0,2.07,6.44,2.42,6.3,0,0-3.54,10.58,17.29,3.91,21.4-8.74,65.29-16.61,86.55-34.73l.24.28s38.59,17.38,57.51,12.72c0,0-6.84-6.13-9.04-9.32,2.69.61,16.31,3.39,22.81-.93,0,0-1.54-6.25-11.23-12.47.72.31,4.07,2.14,7.15,2.34,1.38,1.13,2.95,2.16,4.7,3,4.95,2.38,10.14,2.84,14.21,1.63.86.51,1.7,1.05,2.56,1.58.88,4.25,3.9,8.7,8.57,11.9,4.52,3.1,9.58,4.34,13.78,3.77.77.61,1.54,1.22,2.3,1.84.19,4.36,2.51,9.27,6.68,13.17,4.2,3.93,9.29,5.93,13.68,5.8.49.52.96,1.05,1.44,1.58-.69,4.45.85,9.93,4.54,14.62,3.81,4.85,8.96,7.65,13.56,7.89.19.27.39.54.58.82-1.76,4.39-1.19,10.46,1.95,16.03,3.24,5.73,8.35,9.41,13.14,10.02-2.82,4.05-3.38,10.52-.98,16.86,2.33,6.16,6.82,10.57,11.47,11.89-3.4,3.58-4.94,9.88-3.52,16.52,1.37,6.44,5.14,11.48,9.53,13.49-3.9,3.02-6.38,9.02-5.99,15.8.38,6.57,3.35,12.12,7.38,14.78-4.32,2.39-7.67,7.95-8.31,14.71-.62,6.56,1.47,12.49,5.06,15.73-4.63,1.71-8.78,6.7-10.44,13.28-1.61,6.39-.44,12.57,2.61,16.31-4.83.99-9.7,5.29-12.33,11.55-2.56,6.07-2.34,12.36.11,16.52-4.93.25-10.39,3.76-13.94,9.54-3.45,5.61-4.18,11.86-2.39,16.35-4.91-.5-10.84,2.14-15.22,7.32-4.26,5.02-5.93,11.09-4.84,15.79-4.78-1.24-11.04.48-16.16,4.93-4.97,4.32-7.54,10.06-7.18,14.88-4.53-1.95-10.98-1.2-16.72,2.43-5.57,3.52-8.98,8.81-9.35,13.62-4.19-2.62-10.67-2.85-16.89-.13-6.03,2.63-10.21,7.34-11.3,12.05-3.74-3.22-10.12-4.43-16.68-2.69-6.36,1.69-11.21,5.71-13,10.2-3.21-3.75-9.33-5.92-16.08-5.19-6.55.71-11.94,3.95-14.39,8.11-2.61-4.19-8.32-7.26-15.11-7.56-6.58-.29-12.4,2.09-15.46,5.84-1.94-4.54-7.13-8.44-13.79-9.77-6.46-1.29-12.58.19-16.16,3.43-1.23-4.78-5.77-9.42-12.15-11.74-6.19-2.25-12.46-1.72-16.49.94-.49-4.91-4.27-10.19-10.23-13.44-5.78-3.16-12.06-3.59-16.45-1.57.26-4.93-2.68-10.72-8.07-14.84-4.8-3.67-10.36-5.12-14.83-4.31-.33-.33-.66-.67-.99-1,.44-4.61-1.62-10.15-5.92-14.62-3.62-3.76-8.06-5.97-12.13-6.43-.17-.22-.34-.44-.51-.66-.63-.86-1.22-1.74-1.84-2.61.38-4.12-.95-8.97-4-13.3-2.51-3.57-5.76-6.14-9.07-7.52-1.17-2.14-2.31-4.29-3.41-6.47.36-3.56-.36-7.64-2.31-11.54-1.56-3.14-3.69-5.72-6.05-7.58-1.33-3.52-2.59-7.08-3.7-10.68.31-2.87.03-6.04-.99-9.22-.8-2.49-1.96-4.72-3.35-6.6-1.2-5.21-2.18-10.48-2.97-15.79.24-2.03.22-4.18-.13-6.4-.26-1.62-.68-3.16-1.22-4.59-.24-2.58-.44-5.16-.59-7.75l-.55-9-.15-3.16c.32-1.56.5-3.21.49-4.93-.01-2.26-.34-4.41-.92-6.38-.12-4.59-.19-9.16-.18-13.7,1.75-2.54,3.03-5.74,3.56-9.32.8-5.4-.29-10.46-2.63-13.99.07-.9.12-1.8.21-2.7,4-2,7.57-6.36,9.31-12,1.94-6.29,1.09-12.53-1.76-16.43,4.88-.74,9.96-4.78,12.91-10.89,2.87-5.93,2.98-12.22.75-16.5,3.74,0,7.88-1.85,11.35-5.19,6.96-.09,13.43-3.72,17.07-9.71l13.3-21.92c.55-.91-.16-2.06-1.22-1.97l-15.1,1.35c1.14-1.14,2.17-2.39,3.03-3.81l13.3-21.92c.55-.91-.16-2.06-1.22-1.97l-27.98,2.49c-4.18.37-8.06,2.03-11.19,4.64.46-3.61-.04-7.35-1.57-10.79l-10.42-23.43c-.43-.97-1.79-1.04-2.31-.12l-13.91,24.4c-2.31,4.05-3.08,8.71-2.38,13.19l-17.1-11.45c-.88-.59-2.07.07-2.02,1.14l1.24,28.06c.21,4.65,2.02,8.98,4.99,12.4-2.88,5.26-5.64,11.54-5.45,12.85l-1.5,24.58-7.7-10.68c-2.37.22-8.63,19.62-7.94,21.89l2.18,24.54-9.2-9.42c-2.31.57-5.61,20.68-4.59,22.83l5.81,23.93-10.5-7.94c-2.2.91-2.47,21.29-1.14,23.26l9.31,22.8-11.57-6.29c-2.04,1.23.73,21.42,2.34,23.17l12.61,21.16-12.38-4.49c-1.83,1.52,3.92,21.07,5.77,22.56l15.62,19.05-12.91-2.6c-1.58,1.77,7.01,20.25,9.07,21.45l18.28,16.5-13.15-.64c-1.3,1.99,9.95,18.98,12.16,19.86l20.54,13.6-13.1,1.32c-.99,2.16,12.67,17.28,14.99,17.83l22.34,10.38-12.76,3.26c-.66,2.28,15.11,15.2,17.48,15.39l23.63,6.94-12.13,5.13c-.31,2.36,17.2,12.78,19.57,12.62l24.4,3.34-11.23,6.88c.04,2.38,18.92,10.08,21.24,9.56l24.63-.34-10.08,8.47c.4,2.34,20.21,7.14,22.42,6.29l24.3-4-8.7,9.88c.74,2.26,21.05,4.05,23.11,2.87l23.43-7.58-7.13,11.07c1.07,2.12,21.41.87,23.28-.6l22.04-10.99-5.4,12.01c1.38,1.94,21.31-2.33,22.93-4.07l19.66-13.8c.14-.03.28-.06.43-.09l-3.48,12.42c1.65,1.71,20.72-5.48,22.07-7.44l16.22-15.47c.16-.06.32-.11.47-.17.34-.13.67-.28,1.02-.42l-1.51,12.12c1.89,1.45,19.67-8.51,20.71-10.64l13.03-16.8c.7-.39,1.4-.79,2.1-1.2l.3,11.7c2.08,1.15,18.18-11.34,18.9-13.61l9.66-17.27c.91-.7,1.84-1.38,2.74-2.09l1.92,10.83c2.23.83,16.29-13.93,16.66-16.28l6.53-17.33c1.02-1.05,2.01-2.13,3.01-3.19l3.35,9.95c2.33.49,14.03-16.2,14.04-18.58l3.62-16.92c1.02-1.41,2.05-2.81,3.03-4.24l4.52,8.79c2.37.13,11.46-18.11,11.12-20.46l.99-16.26c.91-1.78,1.76-3.58,2.63-5.38l5.57,7.74c2.37-.22,8.63-19.62,7.94-21.89l-1.38-15.58c.68-2.03,1.37-4.06,1.99-6.1l6.42,6.57c2.31-.57,5.61-20.68,4.59-22.83l-3.63-14.94c.38-2.18.72-4.37,1.04-6.55l7.28,5.5c2.2-.91,2.47-21.29,1.14-23.26l-5.87-14.38c.03-2.18.03-4.37,0-6.55l8.12,4.41Z"/>
    <g>
      <path class="cls-1" d="m223.69,197.51v39.7l-54.8,30.08,54.8,30.08v39.49l-97.02-53.05v-33.36l97.02-52.94Z"/>
      <path class="cls-1" d="m298.5,193.57l-40.8,177.63h-19.91l40.69-177.63h20.02Z"/>
      <path class="cls-1" d="m316.32,336.86v-39.7l54.8-30.08-54.69-30.08v-39.48l96.91,53.05v33.36l-97.02,52.94Z"/>
    </g>
  </g>
  <g>
    <path class="cls-3" d="m100.61,753.9c19.21,0,19.21,28.99,0,28.99h-40.73c-41.44,0-41.26,75.76,0,75.76h40.73c19.21,0,19.21,29.34,0,29.34h-40.73c-79.49,0-80.21-134.09,0-134.09h40.73Zm-7.82,67.05c0,7.83-6.94,14.94-14.76,14.94s-14.76-7.11-14.76-14.94c0-8.36,6.58-14.94,14.76-14.94s14.76,6.58,14.76,14.94Z"/>
    <path class="cls-3" d="m211.05,887.99h-24.36c-78.78,0-80.03-134.09,0-134.09h24.36c79.49,0,79.14,134.09,0,134.09Zm-24.36-29.34h24.36c40.73,0,40.37-75.76,0-75.76h-24.36c-41.08,0-41.08,75.76,0,75.76Zm26.85-37.7c0,7.83-6.76,14.94-14.76,14.94s-15.12-7.11-15.12-14.94c0-8.36,6.94-14.94,15.12-14.94s14.76,6.58,14.76,14.94Z"/>
    <path class="cls-3" d="m296.77,782.88c-19.21,0-19.21-28.99,0-28.99h41.61c79.67,0,79.14,134.09,0,134.09h-41.61c-19.21,0-19.21-29.34,0-29.34h41.61c41.08,0,41.26-75.76,0-75.76h-41.61Z"/>
    <path class="cls-3" d="m525.12,753.9c7.65,0,14.41,6.76,14.41,14.23,0,8.36-6.76,14.76-14.41,14.76h-99.77c-8,0-14.58-6.4-14.58-14.76,0-7.47,6.58-14.23,14.58-14.23h99.77Zm0,104.57c7.65,0,14.41,6.58,14.41,14.41s-6.76,14.94-14.41,14.94h-99.77c-8,0-14.58-6.76-14.58-14.94s6.58-14.41,14.58-14.41h99.77Zm-30.59-53.71c16.01,0,15.29,28.99,0,28.99h-70.78c-16.72,0-17.43-28.99,0-28.99h70.78Z"/>
  </g>
  <g>
    <path class="cls-2" d="m96.15,729.02c-8.12.1-15.42-1.11-21.89-3.62-6.47-2.51-12.12-5.94-16.95-10.3-4.83-4.36-8.84-9.45-12.04-15.29-3.2-5.83-5.59-12.05-7.16-18.64-1.58-6.6-2.35-13.36-2.33-20.31.02-6.94.85-13.71,2.47-20.31,1.62-6.6,4.04-12.82,7.24-18.68,3.2-5.86,7.2-10.99,12-15.4,4.8-4.41,10.36-7.88,16.69-10.41,6.32-2.53,13.43-3.8,21.3-3.8,6.84,0,13.04,1.06,18.61,3.18,5.56,2.12,10.51,5.01,14.84,8.68,4.33,3.67,8.04,7.99,11.11,12.96,3.08,4.97,5.55,10.31,7.42,16.02,1.87,5.71,3.11,11.66,3.73,17.83.61,6.18.63,12.33.04,18.46-.59,6.13-1.8,12.1-3.62,17.91-1.82,5.81-4.23,11.17-7.24,16.1l12.04,19.12-22.52,12.33-8.2-12.7c-3.64,2.12-7.58,3.77-11.81,4.95-4.23,1.18-8.81,1.82-13.73,1.92Zm27.54-52.2c1.18-4.23,1.89-8.64,2.14-13.22.25-4.58.01-9.07-.7-13.48-.71-4.41-1.93-8.57-3.65-12.48-1.72-3.91-3.95-7.32-6.68-10.23-2.73-2.9-5.97-5.14-9.71-6.72-3.74-1.58-8.02-2.24-12.85-1.99-5.42.35-10.15,1.82-14.21,4.43-4.06,2.61-7.45,5.92-10.15,9.93-2.71,4.01-4.73,8.54-6.05,13.59-1.33,5.05-1.97,10.17-1.92,15.36.05,5.19.8,10.26,2.25,15.21,1.45,4.95,3.61,9.37,6.46,13.25,2.85,3.89,6.42,7.01,10.71,9.38,4.28,2.36,9.28,3.57,14.99,3.62,2.66.05,5.13-.26,7.42-.92,2.29-.67,4.44-1.61,6.46-2.84l-14.99-24.74,21.86-12.04,8.64,13.88Z"/>
    <path class="cls-2" d="m220.05,718.24c-.79.39-1.58.76-2.36,1.11-.79.34-1.6.69-2.44,1.03-8.17,3.3-15.36,5.02-21.56,5.17-6.2.15-11.48-1.35-15.84-4.5-4.36-3.15-7.78-8.02-10.26-14.62-2.49-6.6-4.07-15.01-4.76-25.25-.25-3.54-.43-7.63-.55-12.26-.12-4.63-.21-9.49-.26-14.58-.05-5.1-.03-10.24.07-15.43.1-5.19.25-10.13.44-14.8h24.44c-.1,3.05-.21,6.21-.33,9.49-.12,3.27-.23,6.58-.33,9.93-.1,3.35-.18,6.65-.26,9.89-.07,3.25-.12,6.34-.15,9.27-.03,2.93-.01,5.64.04,8.12.05,2.49.12,4.64.22,6.46.3,4.78.87,8.84,1.74,12.18.86,3.35,2.2,5.92,4.02,7.72,1.82,1.8,4.2,2.76,7.13,2.88,2.93.12,6.61-.68,11.04-2.4,3.74-1.43,6.99-3.2,9.75-5.32l-.37-68.23h26.21c-.05,2.17-.07,5.13-.07,8.9s-.01,8.05-.04,12.85c-.03,4.8-.04,9.93-.04,15.4s-.01,10.95-.04,16.47c-.03,5.51-.04,10.88-.04,16.1s-.01,9.99-.04,14.32c-.03,4.33-.05,8.04-.07,11.11-.03,3.08-.06,5.21-.11,6.39h-24.96l-.22-7.38Z"/>
    <path class="cls-2" d="m351.27,706.57c-3.25,3.54-6.93,6.61-11.04,9.19-4.11,2.58-8.38,4.69-12.81,6.31-4.43,1.62-8.9,2.78-13.4,3.47-4.5.69-8.78.91-12.81.66-6.1-.29-11.94-1.62-17.5-3.99-5.56-2.36-10.44-5.67-14.62-9.93-4.18-4.26-7.49-9.45-9.93-15.58-2.44-6.13-3.58-13.13-3.43-21.01.05-4.18.57-8.38,1.55-12.59.98-4.21,2.42-8.26,4.32-12.15,1.89-3.89,4.23-7.53,7.01-10.93,2.78-3.4,6.02-6.35,9.71-8.86,3.69-2.51,7.84-4.5,12.44-5.98,4.6-1.48,9.66-2.26,15.17-2.36,5.61-.05,10.66.76,15.14,2.44,4.48,1.67,8.41,3.99,11.78,6.94,3.37,2.95,6.21,6.42,8.53,10.41,2.31,3.99,4.12,8.25,5.43,12.77,1.3,4.53,2.13,9.23,2.47,14.1.34,4.87.22,9.67-.37,14.4l-69.11.22c.79,3.25,1.97,6.14,3.54,8.68,1.57,2.54,3.4,4.68,5.46,6.42,2.07,1.75,4.36,3.09,6.87,4.02,2.51.94,5.14,1.43,7.9,1.48,2.17,0,4.54-.25,7.13-.74,2.58-.49,5.19-1.27,7.83-2.33,2.63-1.06,5.18-2.37,7.64-3.95,2.46-1.57,4.65-3.42,6.57-5.54l18.53,14.4Zm-25.25-45.93c-.39-2.31-1.13-4.34-2.22-6.09-1.08-1.75-2.44-3.22-4.06-4.43-1.62-1.21-3.43-2.14-5.43-2.81-1.99-.67-4.05-1.07-6.17-1.22-2.56-.2-5.14-.02-7.75.52-2.61.54-5.05,1.4-7.31,2.58-2.26,1.18-4.26,2.68-5.98,4.5-1.72,1.82-2.98,3.94-3.77,6.35l42.68.59Z"/>
    <path class="cls-2" d="m376,627.57c0-3.54.01-7.01.04-10.41.02-3.4.05-6.48.07-9.27.02-2.78.05-5.16.07-7.12.02-1.97.04-3.32.04-4.06h24.96l.15,30.87h20.08v25.55h-19.86l.44,72.88h-26.21c0-1.48.01-3.66.04-6.53.02-2.88.04-6.24.04-10.08s.01-8.05.04-12.63c.02-4.58.04-9.32.04-14.21v-29.42h-19.64v-25.55h19.71Z"/>
    <path class="cls-2" d="m475.09,649.57h-42.9v-23.41l71.85.37v23.04l-42.61,51.1h42.61v23.92l-71.85-.59v-23.33l42.9-51.1Z"/>
  </g>
</svg>